<svg width="43" height="43" viewBox="0 0 43 43" fill="none" xmlns="http://www.w3.org/2000/svg">
<g id="Wifi">
<path id="Vector" d="M18.0421 5.0525L5.62586 14.9962C4.22836 16.1071 3.33253 18.4542 3.63711 20.21L6.02003 34.4717C6.45003 37.0158 8.88669 39.0762 11.4667 39.0762H31.5334C34.0954 39.0762 36.55 36.9979 36.98 34.4717L39.3629 20.21C39.6496 18.4542 38.7538 16.1071 37.3742 14.9962L24.9579 5.07041C23.0409 3.52958 19.9413 3.52958 18.0421 5.0525Z" stroke="#F8F8F8" stroke-width="1.5" stroke-linecap="round" stroke-linejoin="round"/>
<path id="Vector_2" d="M17.7016 25.7642C19.977 23.5963 23.0229 23.5963 25.2983 25.7642M29.0966 21.9658C28.1734 21.0587 27.1083 20.3083 25.9433 19.7442C24.5553 19.0721 23.0332 18.7229 21.491 18.7229C19.9488 18.7229 18.4267 19.0721 17.0387 19.7442C15.9279 20.2817 14.8708 21.0163 13.8854 21.9658" stroke="#F8F8F8" stroke-width="1.5" stroke-linecap="round" stroke-linejoin="round"/>
<path id="Vector_3" d="M21.4911 30.4583H21.5082" stroke="#F8F8F8" stroke-width="2" stroke-linecap="round" stroke-linejoin="round"/>
</g>
</svg>
